<?xml version="1.0" encoding="utf-8"?>
<!-- Generator: Adobe Illustrator 16.0.0, SVG Export Plug-In . SVG Version: 6.00 Build 0)  -->
<!DOCTYPE svg PUBLIC "-//W3C//DTD SVG 1.1//EN" "http://www.w3.org/Graphics/SVG/1.1/DTD/svg11.dtd">
<svg version="1.1" id="Logo" xmlns="http://www.w3.org/2000/svg" xmlns:xlink="http://www.w3.org/1999/xlink" x="0px" y="0px"
	 width="960px" height="560px" viewBox="0 0 960 560" style="enable-background:new 0 0 960 560;" xml:space="preserve">
<style type="text/css">
<![CDATA[
	.st0{fill-rule:evenodd;clip-rule:evenodd;fill:#704C2C;}
	.st1{fill-rule:evenodd;clip-rule:evenodd;fill:#704D2D;}
	.st2{fill-rule:evenodd;clip-rule:evenodd;fill:#A08979;}
	.st3{fill-rule:evenodd;clip-rule:evenodd;fill:#714E2E;}
	.st4{fill-rule:evenodd;clip-rule:evenodd;fill:#714E2F;}
	.st5{fill-rule:evenodd;clip-rule:evenodd;fill:#A18A7B;}
	.st6{fill-rule:evenodd;clip-rule:evenodd;fill:#724F30;}
	.st7{fill-rule:evenodd;clip-rule:evenodd;fill:#A28B7C;}
	.st8{fill-rule:evenodd;clip-rule:evenodd;fill:#735031;}
	.st9{fill-rule:evenodd;clip-rule:evenodd;fill:#A38C7D;}
	.st10{fill-rule:evenodd;clip-rule:evenodd;fill:#A38D7D;}
	.st11{fill-rule:evenodd;clip-rule:evenodd;fill:#745132;}
	.st12{fill-rule:evenodd;clip-rule:evenodd;fill:#745133;}
	.st13{fill-rule:evenodd;clip-rule:evenodd;fill:#A48E7E;}
	.st14{fill-rule:evenodd;clip-rule:evenodd;fill:#A48E7F;}
	.st15{fill-rule:evenodd;clip-rule:evenodd;fill:#755234;}
	.st16{fill-rule:evenodd;clip-rule:evenodd;fill:#755335;}
	.st17{fill-rule:evenodd;clip-rule:evenodd;fill:#A58F80;}
	.st18{fill-rule:evenodd;clip-rule:evenodd;fill:#765436;}
	.st19{fill-rule:evenodd;clip-rule:evenodd;fill:#775537;}
	.st20{fill-rule:evenodd;clip-rule:evenodd;fill:#775638;}
	.st21{fill-rule:evenodd;clip-rule:evenodd;fill:#78573A;}
	.st22{fill-rule:evenodd;clip-rule:evenodd;fill:#79583B;}
	.st23{fill:#816147;}
	.st24{fill-rule:evenodd;clip-rule:evenodd;fill:#7A593C;}
	.st25{fill-rule:evenodd;clip-rule:evenodd;fill:#7A5A3D;}
	.st26{fill-rule:evenodd;clip-rule:evenodd;fill:#7B5A3E;}
	.st27{fill-rule:evenodd;clip-rule:evenodd;fill:#7C5B3F;}
	.st28{fill-rule:evenodd;clip-rule:evenodd;fill:#7C5C40;}
	.st29{fill-rule:evenodd;clip-rule:evenodd;fill:#7D5D41;}
	.st30{fill-rule:evenodd;clip-rule:evenodd;fill:#7E5D42;}
	.st31{fill-rule:evenodd;clip-rule:evenodd;fill:#7E5E43;}
	.st32{fill-rule:evenodd;clip-rule:evenodd;fill:#7F5F44;}
	.st33{fill-rule:evenodd;clip-rule:evenodd;fill:#7F6045;}
	.st34{fill-rule:evenodd;clip-rule:evenodd;fill:#806046;}
	.st35{fill-rule:evenodd;clip-rule:evenodd;fill:#816147;}
	.st36{fill-rule:evenodd;clip-rule:evenodd;fill:#816248;}
	.st37{fill-rule:evenodd;clip-rule:evenodd;fill:#826349;}
	.st38{fill-rule:evenodd;clip-rule:evenodd;fill:#82644A;}
	.st39{fill-rule:evenodd;clip-rule:evenodd;fill:#83654B;}
	.st40{fill-rule:evenodd;clip-rule:evenodd;fill:#84654C;}
	.st41{fill-rule:evenodd;clip-rule:evenodd;fill:#84664D;}
	.st42{fill-rule:evenodd;clip-rule:evenodd;fill:#85674E;}
	.st43{fill-rule:evenodd;clip-rule:evenodd;fill:#86684F;}
	.st44{fill-rule:evenodd;clip-rule:evenodd;fill:#866850;}
	.st45{fill-rule:evenodd;clip-rule:evenodd;fill:#876950;}
	.st46{fill-rule:evenodd;clip-rule:evenodd;fill:#876A52;}
	.st47{fill-rule:evenodd;clip-rule:evenodd;fill:#886B53;}
	.st48{fill-rule:evenodd;clip-rule:evenodd;fill:#896C54;}
	.st49{fill-rule:evenodd;clip-rule:evenodd;fill:#896C55;}
	.st50{fill-rule:evenodd;clip-rule:evenodd;fill:#8A6E56;}
	.st51{fill-rule:evenodd;clip-rule:evenodd;fill:#8A6E57;}
	.st52{fill-rule:evenodd;clip-rule:evenodd;fill:#8B6F58;}
	.st53{fill-rule:evenodd;clip-rule:evenodd;fill:#8C7059;}
	.st54{fill-rule:evenodd;clip-rule:evenodd;fill:#8D705A;}
	.st55{fill-rule:evenodd;clip-rule:evenodd;fill:#8D715B;}
	.st56{fill-rule:evenodd;clip-rule:evenodd;fill:#8E725C;}
	.st57{fill-rule:evenodd;clip-rule:evenodd;fill:#8E735D;}
	.st58{fill-rule:evenodd;clip-rule:evenodd;fill:#8F745E;}
	.st59{fill:#FFF1B9;}
	.st60{display:inline;}
	.st61{fill-rule:evenodd;clip-rule:evenodd;fill:#90745F;}
	.st62{fill-rule:evenodd;clip-rule:evenodd;fill:#907560;}
	.st63{fill-rule:evenodd;clip-rule:evenodd;fill:#917660;}
	.st64{fill-rule:evenodd;clip-rule:evenodd;fill:#917762;}
	.st65{fill-rule:evenodd;clip-rule:evenodd;fill:#927863;}
	.st66{fill-rule:evenodd;clip-rule:evenodd;fill:#937964;}
	.st67{fill-rule:evenodd;clip-rule:evenodd;fill:#937965;}
	.st68{fill-rule:evenodd;clip-rule:evenodd;fill:#947A66;}
	.st69{fill-rule:evenodd;clip-rule:evenodd;fill:#957B67;}
	.st70{fill-rule:evenodd;clip-rule:evenodd;fill:#957C68;}
	.st71{fill-rule:evenodd;clip-rule:evenodd;fill:#967C69;}
	.st72{fill-rule:evenodd;clip-rule:evenodd;fill:#977E6B;}
	.st73{fill-rule:evenodd;clip-rule:evenodd;fill:#987F6C;}
	.st74{fill-rule:evenodd;clip-rule:evenodd;fill:#987F6D;}
	.st75{fill-rule:evenodd;clip-rule:evenodd;fill:#99806E;}
	.st76{fill-rule:evenodd;clip-rule:evenodd;fill:#FEFEFE;}
	.st77{fill-rule:evenodd;clip-rule:evenodd;fill:#9A826F;}
	.st78{fill-rule:evenodd;clip-rule:evenodd;fill:#9B8271;}
	.st79{fill-rule:evenodd;clip-rule:evenodd;fill:#68421F;}
	.st80{fill-rule:evenodd;clip-rule:evenodd;fill:#9C8372;}
	.st81{fill-rule:evenodd;clip-rule:evenodd;fill:#9C8473;}
	.st82{fill-rule:evenodd;clip-rule:evenodd;fill:#694321;}
	.st83{fill-rule:evenodd;clip-rule:evenodd;fill:#694422;}
	.st84{fill-rule:evenodd;clip-rule:evenodd;fill:#9D8574;}
	.st85{fill-rule:evenodd;clip-rule:evenodd;fill:#9E8674;}
	.st86{fill-rule:evenodd;clip-rule:evenodd;fill:#9E8776;}
	.st87{fill:#3F4040;}
	.st88{fill-rule:evenodd;clip-rule:evenodd;fill:#9F8877;}
	.st89{fill-rule:evenodd;clip-rule:evenodd;fill:#9F8878;}
	.st90{display:none;}
	.st91{fill-rule:evenodd;clip-rule:evenodd;fill:#6A4523;}
	.st92{fill-rule:evenodd;clip-rule:evenodd;fill:#6B4624;}
	.st93{fill-rule:evenodd;clip-rule:evenodd;fill:#6B4625;}
	.st94{fill-rule:evenodd;clip-rule:evenodd;fill:#6C4726;}
	.st95{fill-rule:evenodd;clip-rule:evenodd;fill:#6C4827;}
	.st96{fill-rule:evenodd;clip-rule:evenodd;fill:#6D4928;}
	.st97{fill-rule:evenodd;clip-rule:evenodd;fill:#6E4A29;}
	.st98{fill-rule:evenodd;clip-rule:evenodd;fill:#6E4A2A;}
	.st99{fill-rule:evenodd;clip-rule:evenodd;fill:#6F4B2B;}
]]>
</style>
<g id="BackgroundImage" class="st90">
	<g class="st60">
		<path class="st20" d="M700.2,0.8c5.4,0,10.7,0,16.1,0c0.7,1.5,0.4,3.2,0.4,4.8c0,183.5,0,367,0,550.5c0,1.6,0.3,3.2-0.4,4.8
			c-5.4,0-10.7,0-16.1,0c-0.1-2.2,0.8-4.3,0.8-6.5c-0.1-166.2,0-332.4-0.1-498.7C700.9,37.3,702,19,700.2,0.8z"/>
		<path class="st71" d="M239.3,560.8c-5.4,0-10.7,0-16.1,0c1.2-1,0.7-2.3,0.7-3.6c0-184.3,0-368.6,0-552.9c0-1.3,0.5-2.6-0.7-3.6
			c5.4,0,10.7,0,16.1,0c0.1,2.4,0.4,4.7,0.4,7.1c0,133,0.1,266,0,399.1C239.6,458.2,240.2,509.5,239.3,560.8z"/>
		<path class="st77" d="M178.1,560.8c-5.1,0-10.2,0-15.3,0c0.7-1.5,0.4-3.2,0.4-4.8c0-183.5,0-367,0-550.5c0-1.6,0.3-3.2-0.4-4.8
			c5.1,0,10.2,0,15.3,0c-2,2.3-0.3,4.9-0.3,7.2c-0.1,146.7-0.1,293.4-0.1,440.1c0,35.1,0,70.3,0.1,105.4
			C177.8,555.9,176,558.5,178.1,560.8z"/>
		<path class="st48" d="M448,560.8c-4.6,0-9.1,0-13.7,0c0.7-1.5,0.4-3.2,0.4-4.8c0-183.5,0-367,0-550.5c0-1.6,0.3-3.2-0.4-4.8
			c4.6,0,9.1,0,13.7,0c1.2,1,0.7,2.3,0.7,3.6c0,184.3,0,368.6,0,552.9C448.7,558.5,449.2,559.8,448,560.8z"/>
		<path class="st29" d="M619.6,0.8c4.6,0,9.1,0,13.7,0c1.2,1,0.7,2.3,0.7,3.6c0,184.3,0,368.6,0,552.9c0,1.3,0.5,2.6-0.7,3.6
			c-4.6,0-9.1,0-13.7,0c0.7-1.5,0.4-3.2,0.4-4.8c0-183.5,0-367,0-550.5C620,4,620.3,2.3,619.6,0.8z"/>
		<path class="st64" d="M298.1,0.8c4.8,0,9.7,0,14.5,0c0.7,1.5,0.4,3.2,0.4,4.8c0,183.5,0,367,0,550.5c0,1.6,0.3,3.2-0.4,4.8
			c-4.8,0-9.7,0-14.5,0c1.2-1,0.7-2.3,0.7-3.6c0-21.4,0.1-42.7,0.1-64.1c0-10.2,0.1-20.4,0-30.5c0-2.5,2.5-4.7,1-7
			c-1.2-1.8-1-3.6-0.9-5.4c0.5-18.2-0.4-36.3,0.8-54.5c1.1-15.7,0.4-31.5-0.5-47.3c-1.1-19.7-0.4-39.4-0.4-59.2
			c0-10.9,0.2-21.9,0-32.8c-0.1-2.5,2.5-4.7,1.1-7c-1.1-1.8-1-3.5-1-5.4c0-17.1,0-34.2-0.2-51.3c-0.2-17.1,0.5-34.1,0.1-51.2
			c-0.5-21.6-0.1-43.2-0.1-64.8c0-8.8,0.4-17.6,0.1-26.4c-0.1-2.7,2.6-5,0.9-7.4c-1.2-1.7-0.9-3.4-0.9-5.1
			c-0.1-11.2-0.1-22.4-0.1-33.5C298.8,3.1,299.3,1.8,298.1,0.8z"/>
		<path class="st27" d="M651,560.8c-3.8,0-7.5,0-11.3,0c0.7-1.5,0.4-3.2,0.4-4.8c0-183.5,0-367,0-550.5c0-1.6,0.3-3.2-0.4-4.8
			c3.8,0,7.5,0,11.3,0c2.4,1.3,2.9,3.4,2.9,6.1c-0.1,182.6-0.1,365.3,0,547.9C653.9,557.4,653.4,559.5,651,560.8z"/>
		<path class="st75" d="M178.1,560.8c-2-2.3-0.3-4.9-0.3-7.2c-0.1-35.1-0.1-70.3-0.1-105.4c0-146.7,0-293.4,0.1-440.1
			c0-2.4-1.7-4.9,0.3-7.2c4,0,8.1,0,12.1,0c0.7,1.5,0.4,3.2,0.4,4.8c0,183.5,0,367,0,550.5c0,1.6,0.3,3.2-0.4,4.8
			C186.1,560.8,182.1,560.8,178.1,560.8z"/>
		<path class="st66" d="M274.8,0.8c4,0,8.1,0,12.1,0c0.7,1.5,0.4,3.2,0.4,4.8c0,183.5,0,367,0,550.5c0,1.6,0.3,3.2-0.4,4.8
			c-4.6,0-9.1,0-13.7,0c1.5-1.7,1.2-3.7,1.2-5.7c0-183,0-366.1,0-549.1C274.4,4.2,274,2.5,274.8,0.8z"/>
		<path class="st79" d="M960.5,560.8c-4.6,0-9.1,0-13.7,0c1.2-1,0.7-2.3,0.7-3.6c0-184.3,0-368.6,0-552.9c0-1.3,0.5-2.6-0.7-3.6
			c4.6,0,9.1,0,13.7,0C960.5,187.5,960.5,374.1,960.5,560.8z"/>
		<path class="st43" d="M483.5,0.8c4,0,8.1,0,12.1,0c0.1,2.4,0.4,4.7,0.4,7.1c0,133,0.1,266,0,399.1c0,51.3,0.6,102.6-0.4,153.9
			c-4,0-8.1,0-12.1,0c-0.7-1.5-0.4-3.2-0.4-4.8c0-183.5,0-367,0-550.5C483.1,4,482.7,2.3,483.5,0.8z"/>
		<path class="st52" d="M408.5,560.8c-4.6,0-9.1,0-13.7,0c1.2-1,0.7-2.3,0.7-3.6c0-184.3,0-368.6,0-552.9c0-1.3,0.5-2.6-0.7-3.6
			c4.6,0,9.1,0,13.7,0c-2,2.3-0.3,4.9-0.3,7.2c-0.1,146.7-0.1,293.4-0.1,440.1c0,35.1,0,70.3,0.1,105.4
			C408.2,555.9,406.5,558.5,408.5,560.8z"/>
		<path class="st8" d="M789.6,560.8c-4.8,0-9.7,0-14.5,0c2.4-1.3,2.9-3.4,2.9-6.1C778,372.1,778,189.5,778,6.9
			c0-2.6-0.5-4.7-2.9-6.1c4.8,0,9.7,0,14.5,0c0.7,1.5,0.4,3.2,0.4,4.8c0,183.5,0,367,0,550.5C790,557.6,790.3,559.3,789.6,560.8z"/>
		<path class="st70" d="M239.3,560.8c0.9-51.3,0.3-102.6,0.4-153.9c0.1-133,0-266,0-399.1c0-2.4-0.2-4.7-0.4-7.1c4,0,8.1,0,12.1,0
			c0.7,1.5,0.4,3.2,0.4,4.8c0,183.5,0,367,0,550.5c0,1.6,0.3,3.2-0.4,4.8C247.4,560.8,243.3,560.8,239.3,560.8z"/>
		<path class="st32" d="M604.3,560.8c-4,0-8.1,0-12.1,0c0.7-1.5,0.4-3.2,0.4-4.8c0-183.5,0-367,0-550.5c0-1.6,0.3-3.2-0.4-4.8
			c4,0,8.1,0,12.1,0c0.7,1.5,0.4,3.2,0.4,4.8c0,183.5,0,367,0,550.5C604.7,557.6,605,559.3,604.3,560.8z"/>
		<path class="st15" d="M759.8,560.8c-4,0-8.1,0-12.1,0c0.7-1.5,0.4-3.2,0.4-4.8c0-183.5,0-367,0-550.5c0-1.6,0.3-3.2-0.4-4.8
			c4,0,8.1,0,12.1,0c0.7,1.5,0.4,3.2,0.4,4.8c0,183.5,0,367,0,550.5C760.2,557.6,760.5,559.3,759.8,560.8z"/>
		<path class="st19" d="M716.3,560.8c0.7-1.5,0.4-3.2,0.4-4.8c0-183.5,0-367,0-550.5c0-1.6,0.3-3.2-0.4-4.8c4,0,8.1,0,12.1,0
			c0.7,1.5,0.4,3.2,0.4,4.8c0,183.5,0,367,0,550.5c0,1.6,0.3,3.2-0.4,4.8C724.4,560.8,720.3,560.8,716.3,560.8z"/>
		<path class="st74" d="M190.2,560.8c0.7-1.5,0.4-3.2,0.4-4.8c0-183.5,0-367,0-550.5c0-1.6,0.3-3.2-0.4-4.8c4,0,8.1,0,12.1,0
			c0.7,1.5,0.4,3.2,0.4,4.8c0,183.5,0,367,0,550.5c0,1.6,0.3,3.2-0.4,4.8C198.2,560.8,194.2,560.8,190.2,560.8z"/>
		<path class="st33" d="M592.2,0.8c0.7,1.5,0.4,3.2,0.4,4.8c0,183.5,0,367,0,550.5c0,1.6,0.3,3.2-0.4,4.8c-4,0-8.1,0-12.1,0
			c0.7-1.5,0.4-3.2,0.4-4.8c0-183.5,0-367,0-550.5c0-1.6,0.3-3.2-0.4-4.8C584.2,0.8,588.2,0.8,592.2,0.8z"/>
		<path class="st14" d="M16.9,560.8c-3.5,0-7,0-10.5,0c-1.5-1.7-1.2-3.7-1.2-5.7c0-55.5,0-111.1,0-166.6c0-127.3,0-254.6,0-381.9
			c0-2-0.3-4.1,1.2-5.7c3.5,0,7,0,10.5,0c0.7,1.5,0.4,3.2,0.4,4.8c0,183.5,0,367,0,550.5C17.3,557.6,17.6,559.3,16.9,560.8z"/>
		<path class="st7" d="M56.4,560.8c-4,0-8.1,0-12.1,0c0.7-1.5,0.4-3.2,0.4-4.8c0-183.5,0-367,0-550.5c0-1.6,0.3-3.2-0.4-4.8
			c4,0,8.1,0,12.1,0c-0.8,0.5-1.5,1-2.9,1.9c3.8,1.6,3.3,4.1,3.3,6.4c0,180.9,0,361.9,0,542.8c0,2.6,0.2,5.2-2.5,6.9
			C55.2,559.7,55.8,560.3,56.4,560.8z"/>
		<path class="st65" d="M286.8,560.8c0.7-1.5,0.4-3.2,0.4-4.8c0-183.5,0-367,0-550.5c0-1.6,0.3-3.2-0.4-4.8c3.8,0,7.5,0,11.3,0
			c1.2,1,0.7,2.3,0.7,3.6c0,11.2,0,22.4,0.1,33.5c0,1.7-0.3,3.3,0.9,5.1c1.7,2.4-1,4.7-0.9,7.4c0.3,8.8-0.1,17.6-0.1,26.4
			c0,21.6-0.4,43.2,0.1,64.8c0.4,17.1-0.3,34.2-0.1,51.2c0.2,17.1,0.1,34.2,0.2,51.3c0,1.9,0,3.6,1,5.4c1.4,2.4-1.1,4.5-1.1,7
			c0.2,10.9,0,21.9,0,32.8c0,19.7-0.7,39.5,0.4,59.2c0.9,15.8,1.6,31.6,0.5,47.3c-1.2,18.2-0.3,36.3-0.8,54.5
			c-0.1,1.9-0.3,3.6,0.9,5.4c1.5,2.3-1.1,4.5-1,7c0.2,10.2,0,20.4,0,30.5c0,21.4-0.1,42.7-0.1,64.1c0,1.3,0.5,2.6-0.7,3.6
			C294.4,560.8,290.6,560.8,286.8,560.8z"/>
		<path class="st94" d="M885.5,0.8c4,0,8.1,0,12.1,0c0.7,1.5,0.4,3.2,0.4,4.8c0,183.5,0,367,0,550.5c0,1.6,0.3,3.2-0.4,4.8
			c-4,0-8.1,0-12.1,0c-0.1-2.2,0.8-4.2,0.8-6.5c-0.1-166.2,0-332.5-0.1-498.7C886.3,37.3,887.3,19,885.5,0.8z"/>
		<path class="st24" d="M668.8,0.8c4,0,8.1,0,12.1,0c0.7,1.5,0.4,3.2,0.4,4.8c0,183.5,0,367,0,550.5c0,1.6,0.3,3.2-0.4,4.8
			c-4,0-8.1,0-12.1,0c1.2-1,0.7-2.3,0.7-3.6c0-184.3,0-368.6,0-552.9C669.5,3.1,669.9,1.8,668.8,0.8z"/>
		<path class="st85" d="M112.8,0.8c4,0,8.1,0,12.1,0c0.7,1.5,0.4,3.2,0.4,4.8c0,183.5,0,367,0,550.5c0,1.6,0.3,3.2-0.4,4.8
			c-4,0-8.1,0-12.1,0c1.2-1,0.7-2.3,0.7-3.6c0-184.3,0-368.6,0-552.9C113.5,3.1,114,1.8,112.8,0.8z"/>
		<path class="st68" d="M270.7,560.8c-4,0-8.1,0-12.1,0c1.2-1,0.7-2.3,0.7-3.6c0-184.3,0-368.6,0-552.9c0-1.3,0.5-2.6-0.7-3.6
			c4,0,8.1,0,12.1,0c0.7,1.5,0.4,3.2,0.4,4.8c0,183.5,0,367,0,550.5C271.1,557.6,271.4,559.3,270.7,560.8z"/>
		<path class="st72" d="M223.2,0.8c1.2,1,0.7,2.3,0.7,3.6c0,184.3,0,368.6,0,552.9c0,1.3,0.5,2.6-0.7,3.6c-3.8,0-7.5,0-11.3,0
			c0.7-1.5,0.4-3.2,0.4-4.8c0-183.5,0-367,0-550.5c0-1.6,0.3-3.2-0.4-4.8C215.7,0.8,219.4,0.8,223.2,0.8z"/>
		<path class="st80" d="M152.3,560.8c-3.8,0-7.5,0-11.3,0c0.7-1.5,0.4-3.2,0.4-4.8c0-183.5,0-367,0-550.5c0-1.6,0.3-3.2-0.4-4.8
			c3.8,0,7.5,0,11.3,0c1.2,1,0.7,2.3,0.7,3.6c0,184.3,0,368.6,0,552.9C153,558.5,153.5,559.8,152.3,560.8z"/>
		<path class="st86" d="M112.8,0.8c1.2,1,0.7,2.3,0.7,3.6c0,184.3,0,368.6,0,552.9c0,1.3,0.5,2.6-0.7,3.6c-3.8,0-7.5,0-11.3,0
			c0.7-1.5,0.4-3.2,0.4-4.8c0-183.5,0-367,0-550.5c0-1.6,0.3-3.2-0.4-4.8C105.3,0.8,109,0.8,112.8,0.8z"/>
		<path class="st91" d="M913.7,0.8c3.8,0,7.5,0,11.3,0c1.2,1,0.7,2.3,0.7,3.6c0,184.3,0,368.6,0,552.9c0,1.3,0.5,2.6-0.7,3.6
			c-3.8,0-7.5,0-11.3,0c0.7-1.5,0.4-3.2,0.4-4.8c0-183.5,0-367,0-550.5C914.1,4,914.4,2.3,913.7,0.8z"/>
		<path class="st18" d="M728.4,560.8c0.7-1.5,0.4-3.2,0.4-4.8c0-183.5,0-367,0-550.5c0-1.6,0.3-3.2-0.4-4.8c3.8,0,7.5,0,11.3,0
			c1.2,1,0.7,2.3,0.7,3.6c0,184.3,0,368.6,0,552.9c0,1.3,0.5,2.6-0.7,3.6C735.9,560.8,732.2,560.8,728.4,560.8z"/>
		<path class="st82" d="M946.8,0.8c1.2,1,0.7,2.3,0.7,3.6c0,184.3,0,368.6,0,552.9c0,1.3,0.5,2.6-0.7,3.6c-3.8,0-7.5,0-11.3,0
			c0.7-1.5,0.4-3.2,0.4-4.8c0-183.5,0-367,0-550.5c0-1.6,0.3-3.2-0.4-4.8C939.2,0.8,943,0.8,946.8,0.8z"/>
		<path class="st99" d="M848.5,560.8c-4,0-8.1,0-12.1,0c1.2-1,0.7-2.3,0.7-3.6c0-41.4,0-82.7,0-124.1c0-142.4,0-284.8,0-427.2
			c0-1.9,0.1-3.8,1.7-5.2c3.2,0,6.4,0,9.7,0c0.7,1.5,0.4,3.2,0.4,4.8c0,183.5,0,367,0,550.5C848.8,557.6,849.2,559.3,848.5,560.8z"
			/>
		<path class="st21" d="M700.2,0.8c1.8,18.2,0.7,36.5,0.7,54.8c0.1,166.2,0,332.4,0.1,498.7c0,2.3-0.9,4.3-0.8,6.5
			c-3.8,0-7.5,0-11.3,0c0.7-1.5,0.4-3.2,0.4-4.8c0-183.5,0-367,0-550.5c0-1.6,0.3-3.2-0.4-4.8C692.7,0.8,696.4,0.8,700.2,0.8z"/>
		<path class="st95" d="M885.5,0.8c1.8,18.2,0.7,36.5,0.7,54.8c0.1,166.2,0,332.4,0.1,498.7c0,2.3-0.9,4.3-0.8,6.5
			c-3.2,0-6.4,0-9.7,0c-1.5-1.7-1.2-3.7-1.2-5.7c0-55.5,0-111.1,0-166.6c0-127.3,0-254.6,0-381.9c0-2-0.3-4.1,1.2-5.7
			C879.1,0.8,882.3,0.8,885.5,0.8z"/>
		<path class="st10" d="M36.3,560.8c-3.2,0-6.4,0-9.7,0c0.7-1.5,0.4-3.2,0.4-4.8c0-183.5,0-367,0-550.5c0-1.6,0.3-3.2-0.4-4.8
			c3.2,0,6.4,0,9.7,0c1.7,1.7,2.6,3.5,2.6,6.1c-0.1,182.4-0.2,364.7-0.2,547.1C38.6,556.8,38.3,558.9,36.3,560.8z"/>
		<path class="st57" d="M348.1,0.8c3.8,0,7.5,0,11.3,0c0.1,2.4,0.4,4.7,0.4,7.1c0,133,0.1,266,0,399.1c0,51.3,0.6,102.6-0.4,153.9
			c-3.8,0-7.5,0-11.3,0c0.7-1.5,0.4-3.2,0.4-4.8c0-183.5,0-367,0-550.5C348.5,4,348.8,2.3,348.1,0.8z"/>
		<path class="st38" d="M533.4,0.8c3.8,0,7.5,0,11.3,0c0.1,2.4,0.4,4.7,0.4,7.1c0,133,0.1,266,0,399.1c0,51.3,0.6,102.6-0.4,153.9
			c-3.8,0-7.5,0-11.3,0c0.7-1.5,0.4-3.2,0.4-4.8c0-183.5,0-367,0-550.5C533.8,4,534.1,2.3,533.4,0.8z"/>
		<path class="st46" d="M465.7,560.8c-3.2,0-6.4,0-9.7,0c-0.5-7.9-0.7-15.8-0.4-23.8c0.2-3.6-1-7.2-0.5-10.7
			c1-7.4,0.4-14.8,0.3-22.1c-0.1-5.3-0.1-10.8-0.1-16c0.1-7-0.6-14.2,0.4-21.3c0.2-1.8-1.1-3.2-0.7-5.1c1.6-7.3,0.6-14.7,0.4-22.1
			c-0.1-5.3-0.1-10.8-0.1-16c0.1-7.1-0.6-14.2,0.4-21.3c0.2-1.8-1.1-3.2-0.7-5.1c1.6-7.3,0.6-14.7,0.5-22.1
			c-0.1-5.3-0.1-10.8-0.1-16c0.1-7.1-0.6-14.2,0.4-21.3c0.2-1.8-1.1-3.2-0.7-5.1c1.6-7.3,0.6-14.7,0.5-22.1
			c-0.1-5.3-0.1-10.8-0.1-16c0.1-7.1-0.6-14.2,0.4-21.3c0.2-1.8-1.1-3.2-0.7-5.1c1.6-7.3,0.6-14.7,0.5-22.1
			c-0.1-5.3-0.1-10.8-0.1-16c0.1-7.1-0.6-14.2,0.4-21.3c0.2-1.8-1.1-3.2-0.7-5.1c1.6-7.3,0.6-14.7,0.5-22.1
			c-0.1-5.3-0.2-10.8-0.1-16c0.1-7.1-0.6-14.2,0.4-21.3c0.2-1.8-1.1-3.2-0.7-5.1c1.6-7.3,0.6-14.7,0.5-22.1
			c-0.1-5.3-0.2-10.8-0.1-16c0.2-6.8,0-13.7,0-20.5c0-6,0-12.1,0-18.1c0-6.8-0.8-13.7,0.4-20.5c0.4-2.1-1.2-3.9-0.7-5.9
			c1.6-7.2,0.4-14.5,0.5-21.7c0.1-4.7,0.5-9.4,0.6-14.1c3.2,0,6.4,0,9.7,0c1.2,1,0.7,2.3,0.7,3.6c0,184.3,0,368.6,0,552.9
			C466.4,558.5,466.9,559.8,465.7,560.8z"/>
		<path class="st1" d="M814.6,0.8c4,0,8.1,0,12.1,0c-0.1,2.4-0.4,4.7-0.4,7.1c0,133-0.1,266,0,399.1c0,51.3-0.6,102.6,0.4,153.9
			c-4,0-8.1,0-12.1,0c1.2-1,0.7-2.3,0.7-3.6c0-184.3,0-368.6,0-552.9C815.3,3.1,815.8,1.8,814.6,0.8z"/>
		<path class="st54" d="M375.5,0.8c4,0,8.1,0,12.1,0c-1.2,1-0.7,2.3-0.7,3.6c0,184.3,0,368.6,0,552.9c0,1.3-0.5,2.6,0.7,3.6
			c-4,0-8.1,0-12.1,0c0.7-1.5,0.4-3.2,0.4-4.8c0-183.5,0-367,0-550.5C375.9,4,376.2,2.3,375.5,0.8z"/>
		<path class="st88" d="M101.5,0.8c0.7,1.5,0.4,3.2,0.4,4.8c0,183.5,0,367,0,550.5c0,1.6,0.3,3.2-0.4,4.8c-3.2,0-6.4,0-9.7,0
			c-1.2-1-0.7-2.3-0.7-3.6c0-184.3,0-368.6,0-552.9c0-1.3-0.5-2.6,0.7-3.6C95.1,0.8,98.3,0.8,101.5,0.8z"/>
		<path class="st0" d="M826.7,560.8c-0.9-51.3-0.3-102.6-0.4-153.9c-0.1-133,0-266,0-399.1c0-2.4,0.2-4.7,0.4-7.1c4,0,8.1,0,12.1,0
			C837.1,2.2,837,4.1,837,6c0,142.4,0,284.8,0,427.2c0,41.4,0,82.7,0,124.1c0,1.3,0.5,2.6-0.7,3.6
			C833.1,560.8,829.9,560.8,826.7,560.8z"/>
		<path class="st4" d="M796.9,0.8c4,0,8.1,0,12.1,0c-0.3,2.9-1.3,5.7-1.3,8.8c0.1,173.3,0,346.6,0.1,519.9c0,10.4-1.3,21,1.1,31.3
			c-4,0-8.1,0-12.1,0c1.2-1,0.7-2.3,0.7-3.6c0-184.3,0-368.6,0-552.9C797.6,3.1,798.1,1.8,796.9,0.8z"/>
		<path class="st37" d="M544.7,560.8c0.9-51.3,0.3-102.6,0.4-153.9c0.1-133,0-266,0-399.1c0-2.4-0.2-4.7-0.4-7.1c3.2,0,6.4,0,9.7,0
			c1.2,1,0.7,2.3,0.7,3.6c0,184.3,0,368.6,0,552.9c0,1.3,0.5,2.6-0.7,3.6C551.1,560.8,547.9,560.8,544.7,560.8z"/>
		<path class="st42" d="M495.5,560.8c0.9-51.3,0.3-102.6,0.4-153.9c0.1-133,0-266,0-399.1c0-2.4-0.2-4.7-0.4-7.1c3.2,0,6.4,0,9.7,0
			c1.2,1,0.7,2.3,0.7,3.6c0,184.3,0,368.6,0,552.9c0,1.3,0.5,2.6-0.7,3.6C502,560.8,498.8,560.8,495.5,560.8z"/>
		<path class="st58" d="M348.1,0.8c0.7,1.5,0.4,3.2,0.4,4.8c0,183.5,0,367,0,550.5c0,1.6,0.3,3.2-0.4,4.8c-3.5,0-7,0-10.5,0
			c1.2-1,0.7-2.3,0.7-3.6c0-184.3,0-368.6,0-552.9c0-1.3,0.5-2.6-0.7-3.6C341.1,0.8,344.6,0.8,348.1,0.8z"/>
		<path class="st81" d="M141,0.8c0.7,1.5,0.4,3.2,0.4,4.8c0,183.5,0,367,0,550.5c0,1.6,0.3,3.2-0.4,4.8c-3.5,0-7,0-10.5,0
			c1.2-1,0.7-2.3,0.7-3.6c0-184.3,0-368.6,0-552.9c0-1.3,0.5-2.6-0.7-3.6C134,0.8,137.5,0.8,141,0.8z"/>
		<path class="st78" d="M152.3,560.8c1.2-1,0.7-2.3,0.7-3.6c0-184.3,0-368.6,0-552.9c0-1.3,0.5-2.5-0.7-3.6c3.5,0,7,0,10.5,0
			c0.7,1.5,0.4,3.2,0.4,4.8c0,183.5,0,367,0,550.5c0,1.6,0.3,3.2-0.4,4.8C159.3,560.8,155.8,560.8,152.3,560.8z"/>
		<path class="st45" d="M465.7,560.8c1.2-1,0.7-2.3,0.7-3.6c0-184.3,0-368.6,0-552.9c0-1.3,0.5-2.6-0.7-3.6c3.5,0,7,0,10.5,0
			c0.7,1.5,0.4,3.2,0.4,4.8c0,183.5,0,367,0,550.5c0,1.6,0.3,3.2-0.4,4.8C472.7,560.8,469.2,560.8,465.7,560.8z"/>
		<path class="st41" d="M505.2,560.8c1.2-1,0.7-2.3,0.7-3.6c0-184.3,0-368.6,0-552.9c0-1.3,0.5-2.6-0.7-3.6c3.5,0,7,0,10.5,0
			c0.7,1.5,0.4,3.2,0.4,4.8c0,183.5,0,367,0,550.5c0,1.6,0.3,3.2-0.4,4.8C512.2,560.8,508.7,560.8,505.2,560.8z"/>
		<path class="st97" d="M854.1,0.8c3.5,0,7,0,10.5,0c0.7,1.5,0.4,3.2,0.4,4.8c0,183.5,0,367,0,550.5c0,1.6,0.3,3.2-0.4,4.8
			c-3.5,0-7,0-10.5,0c1.2-1,0.7-2.3,0.7-3.6c0-184.3,0-368.6,0-552.9C854.8,3.1,855.3,1.8,854.1,0.8z"/>
		<path class="st92" d="M913.7,0.8c0.7,1.5,0.4,3.2,0.4,4.8c0,183.5,0,367,0,550.5c0,1.6,0.3,3.2-0.4,4.8c-3.5,0-7,0-10.5,0
			c1.2-1,0.7-2.3,0.7-3.6c0-184.3,0-368.6,0-552.9c0-1.3,0.5-2.6-0.7-3.6C906.7,0.8,910.2,0.8,913.7,0.8z"/>
		<path class="st83" d="M935.5,0.8c0.7,1.5,0.4,3.2,0.4,4.8c0,183.5,0,367,0,550.5c0,1.6,0.3,3.2-0.4,4.8c-3.5,0-7,0-10.5,0
			c1.2-1,0.7-2.3,0.7-3.6c0-184.3,0-368.6,0-552.9c0-1.3,0.5-2.6-0.7-3.6C928.5,0.8,932,0.8,935.5,0.8z"/>
		<path class="st35" d="M572.1,560.8c-3.2,0-6.4,0-9.7,0c0.7-1.5,0.4-3.2,0.4-4.8c0-183.5,0-367,0-550.5c0-1.6,0.3-3.2-0.4-4.8
			c3.2,0,6.4,0,9.7,0c1.2,1,0.7,2.3,0.7,3.6c0,184.3,0,368.6,0,552.9C572.8,558.5,573.3,559.8,572.1,560.8z"/>
		<path class="st26" d="M651,560.8c2.4-1.3,2.9-3.4,2.9-6.1c-0.1-182.6-0.1-365.3,0-547.9c0-2.6-0.5-4.7-2.9-6.1c4,0,8.1,0,12.1,0
			c0.7,1.5,0.4,3.2,0.4,4.8c0,183.5,0,367,0,550.5c0,1.6,0.3,3.2-0.4,4.8C659.1,560.8,655.1,560.8,651,560.8z"/>
		<path class="st5" d="M56.4,560.8c-0.6-0.5-1.2-1.1-2-1.9c2.7-1.7,2.5-4.3,2.5-6.9c0-180.9,0-361.9,0-542.8c0-2.4,0.5-4.9-3.3-6.4
			c1.4-0.9,2.1-1.4,2.9-1.9c2.4,0,4.8,0,7.3,0c2.4,1.3,2.9,3.4,2.9,6.1c-0.1,182.6-0.1,365.3,0,547.9c0,2.6-0.5,4.7-2.9,6.1
			C61.2,560.8,58.8,560.8,56.4,560.8z"/>
		<path class="st49" d="M434.3,0.8c0.7,1.5,0.4,3.2,0.4,4.8c0,183.5,0,367,0,550.5c0,1.6,0.3,3.2-0.4,4.8c-3.8,0-7.5,0-11.3,0
			c1.7-1.7,2.1-3.8,2.1-6.2c0-182.5,0-365.1,0-547.6c0-2.4-0.3-4.5-2.1-6.2C426.8,0.8,430.5,0.8,434.3,0.8z"/>
		<path class="st96" d="M864.6,560.8c0.7-1.5,0.4-3.2,0.4-4.8c0-183.5,0-367,0-550.5c0-1.6,0.3-3.2-0.4-4.8c3.8,0,7.5,0,11.3,0
			c-1.5,1.7-1.2,3.7-1.2,5.7c0,127.3,0,254.6,0,381.9c0,55.5,0,111.1,0,166.6c0,2-0.3,4.1,1.2,5.7
			C872.1,560.8,868.3,560.8,864.6,560.8z"/>
		<path class="st13" d="M26.6,0.8C27.3,2.3,27,4,27,5.6c0,183.5,0,367,0,550.5c0,1.6,0.3,3.2-0.4,4.8c-3.2,0-6.4,0-9.7,0
			c0.7-1.5,0.4-3.2,0.4-4.8c0-183.5,0-367,0-550.5c0-1.6,0.3-3.2-0.4-4.8C20.1,0.8,23.4,0.8,26.6,0.8z"/>
		<path class="st30" d="M619.6,0.8c0.7,1.5,0.4,3.2,0.4,4.8c0,183.5,0,367,0,550.5c0,1.6,0.3,3.2-0.4,4.8c-3.2,0-6.4,0-9.7,0
			c0.7-1.5,0.4-3.2,0.4-4.8c0-183.5,0-367,0-550.5c0-1.6,0.3-3.2-0.4-4.8C613.2,0.8,616.4,0.8,619.6,0.8z"/>
		<path class="st40" d="M515.7,560.8c0.7-1.5,0.4-3.2,0.4-4.8c0-183.5,0-367,0-550.5c0-1.6,0.3-3.2-0.4-4.8c3.2,0,6.4,0,9.7,0
			c0.7,1.5,0.4,3.2,0.4,4.8c0,183.5,0,367,0,550.5c0,1.6,0.3,3.2-0.4,4.8C522.1,560.8,518.9,560.8,515.7,560.8z"/>
		<path class="st73" d="M211.9,0.8c0.7,1.5,0.4,3.2,0.4,4.8c0,183.5,0,367,0,550.5c0,1.6,0.3,3.2-0.4,4.8c-3.2,0-6.4,0-9.7,0
			c0.7-1.5,0.4-3.2,0.4-4.8c0-183.5,0-367,0-550.5c0-1.6,0.3-3.2-0.4-4.8C205.5,0.8,208.7,0.8,211.9,0.8z"/>
		<path class="st11" d="M775.1,0.8c2.4,1.3,2.9,3.4,2.9,6.1c-0.1,182.6-0.1,365.3,0,547.9c0,2.6-0.5,4.7-2.9,6.1c-2.4,0-4.8,0-7.3,0
			c0.7-1.5,0.4-3.2,0.4-4.8c0-183.5,0-367,0-550.5c0-1.6,0.3-3.2-0.4-4.8C770.3,0.8,772.7,0.8,775.1,0.8z"/>
		<path class="st63" d="M312.6,560.8c0.7-1.5,0.4-3.2,0.4-4.8c0-183.5,0-367,0-550.5c0-1.6,0.3-3.2-0.4-4.8c2.4,0,4.8,0,7.3,0
			c2.4,1.3,2.9,3.4,2.9,6.1c-0.1,182.6-0.1,365.3,0,547.9c0,2.6-0.5,4.7-2.9,6.1C317.5,560.8,315,560.8,312.6,560.8z"/>
		<path class="st2" d="M74.1,0.8c2.4,0,4.8,0,7.3,0c2.9,3.5,2.8,7.5,2.8,11.8c0,178.8,0,357.7,0,536.5c0,4.2,0.1,8.3-2.8,11.8
			c-2.4,0-4.8,0-7.3,0c0.7-1.5,0.4-3.2,0.4-4.8c0-183.5,0-367,0-550.5C74.5,4,74.8,2.3,74.1,0.8z"/>
		<path class="st51" d="M408.5,560.8c-2-2.3-0.3-4.9-0.3-7.2c-0.1-35.1-0.1-70.3-0.1-105.4c0-146.7,0-293.4,0.1-440.1
			c0-2.4-1.7-4.9,0.3-7.2c2.7,0,5.4,0,8.1,0c0.7,1.5,0.4,3.2,0.4,4.8c0,183.5,0,367,0,550.5c0,1.6,0.3,3.2-0.4,4.8
			C413.9,560.8,411.2,560.8,408.5,560.8z"/>
		<path class="st53" d="M387.6,560.8c-1.2-1-0.7-2.3-0.7-3.6c0-184.3,0-368.6,0-552.9c0-1.3-0.5-2.5,0.7-3.6c2.4,0,4.8,0,7.3,0
			c1.2,1,0.7,2.3,0.7,3.6c0,184.3,0,368.6,0,552.9c0,1.3,0.5,2.6-0.7,3.6C392.4,560.8,390,560.8,387.6,560.8z"/>
		<path class="st2" d="M74.1,0.8c0.7,1.5,0.4,3.2,0.4,4.8c0,183.5,0,367,0,550.5c0,1.6,0.3,3.2-0.4,4.8c-3.5,0-7,0-10.5,0
			c2.4-1.3,2.9-3.4,2.9-6.1c-0.1-182.6-0.1-365.3,0-547.9c0-2.6-0.5-4.7-2.9-6.1C67.1,0.8,70.6,0.8,74.1,0.8z"/>
		<path class="st62" d="M319.9,560.8c2.4-1.3,2.9-3.4,2.9-6.1c-0.1-182.6-0.1-365.3,0-547.9c0-2.6-0.5-4.7-2.9-6.1c3.5,0,7,0,10.5,0
			c0.7,1.5,0.4,3.2,0.4,4.8c0,183.5,0,367,0,550.5c0,1.6,0.3,3.2-0.4,4.8C326.9,560.8,323.4,560.8,319.9,560.8z"/>
		<path class="st56" d="M359.4,560.8c0.9-51.3,0.3-102.6,0.4-153.9c0.1-133,0-266,0-399.1c0-2.4-0.2-4.7-0.4-7.1c2.7,0,5.4,0,8.1,0
			c0.7,1.5,0.4,3.2,0.4,4.8c0,183.5,0,367,0,550.5c0,1.6,0.3,3.2-0.4,4.8C364.7,560.8,362.1,560.8,359.4,560.8z"/>
		<path class="st22" d="M688.9,0.8c0.7,1.5,0.4,3.2,0.4,4.8c0,183.5,0,367,0,550.5c0,1.6,0.3,3.2-0.4,4.8c-2.7,0-5.4,0-8.1,0
			c0.7-1.5,0.4-3.2,0.4-4.8c0-183.5,0-367,0-550.5c0-1.6,0.3-3.2-0.4-4.8C683.5,0.8,686.2,0.8,688.9,0.8z"/>
		<path class="st55" d="M367.4,560.8c0.7-1.5,0.4-3.2,0.4-4.8c0-183.5,0-367,0-550.5c0-1.6,0.3-3.2-0.4-4.8c2.7,0,5.4,0,8.1,0
			c0.7,1.5,0.4,3.2,0.4,4.8c0,183.5,0,367,0,550.5c0,1.6,0.3,3.2-0.4,4.8C372.8,560.8,370.1,560.8,367.4,560.8z"/>
		<path class="st12" d="M767.9,0.8c0.7,1.5,0.4,3.2,0.4,4.8c0,183.5,0,367,0,550.5c0,1.6,0.3,3.2-0.4,4.8c-2.7,0-5.4,0-8.1,0
			c0.7-1.5,0.4-3.2,0.4-4.8c0-183.5,0-367,0-550.5c0-1.6,0.3-3.2-0.4-4.8C762.5,0.8,765.2,0.8,767.9,0.8z"/>
		<path class="st39" d="M525.4,560.8c0.7-1.5,0.4-3.2,0.4-4.8c0-183.5,0-367,0-550.5c0-1.6,0.3-3.2-0.4-4.8c2.7,0,5.4,0,8.1,0
			c0.7,1.5,0.4,3.2,0.4,4.8c0,183.5,0,367,0,550.5c0,1.6,0.3,3.2-0.4,4.8C530.7,560.8,528,560.8,525.4,560.8z"/>
		<path class="st50" d="M416.6,560.8c0.7-1.5,0.4-3.2,0.4-4.8c0-183.5,0-367,0-550.5c0-1.6,0.3-3.2-0.4-4.8c2.1,0,4.3,0,6.4,0
			c1.7,1.7,2.1,3.8,2.1,6.2c0,182.5,0,365.1,0,547.6c0,2.4-0.4,4.5-2.1,6.2C420.9,560.8,418.7,560.8,416.6,560.8z"/>
		<path class="st34" d="M572.1,560.8c1.2-1,0.7-2.3,0.7-3.6c0-184.3,0-368.6,0-552.9c0-1.3,0.5-2.6-0.7-3.6c2.7,0,5.4,0,8.1,0
			c0.7,1.5,0.4,3.2,0.4,4.8c0,183.5,0,367,0,550.5c0,1.6,0.3,3.2-0.4,4.8C577.5,560.8,574.8,560.8,572.1,560.8z"/>
		<path class="st16" d="M739.7,560.8c1.2-1,0.7-2.3,0.7-3.6c0-184.3,0-368.6,0-552.9c0-1.3,0.5-2.6-0.7-3.6c2.7,0,5.4,0,8.1,0
			c0.7,1.5,0.4,3.2,0.4,4.8c0,183.5,0,367,0,550.5c0,1.6,0.3,3.2-0.4,4.8C745.1,560.8,742.4,560.8,739.7,560.8z"/>
		<path class="st36" d="M562.4,0.8c0.7,1.5,0.4,3.2,0.4,4.8c0,183.5,0,367,0,550.5c0,1.6,0.3,3.2-0.4,4.8c-2.7,0-5.4,0-8.1,0
			c1.2-1,0.7-2.3,0.7-3.6c0-184.3,0-368.6,0-552.9c0-1.3,0.5-2.6-0.7-3.6C557,0.8,559.7,0.8,562.4,0.8z"/>
		<path class="st6" d="M796.9,0.8c1.2,1,0.7,2.3,0.7,3.6c0,184.3,0,368.6,0,552.9c0,1.3,0.5,2.6-0.7,3.6c-2.4,0-4.8,0-7.3,0
			c0.7-1.5,0.4-3.2,0.4-4.8c0-183.5,0-367,0-550.5c0-1.6,0.3-3.2-0.4-4.8C792.1,0.8,794.5,0.8,796.9,0.8z"/>
		<path class="st69" d="M258.6,0.8c1.2,1,0.7,2.3,0.7,3.6c0,184.3,0,368.6,0,552.9c0,1.3,0.5,2.6-0.7,3.6c-2.4,0-4.8,0-7.3,0
			c0.7-1.5,0.4-3.2,0.4-4.8c0-183.5,0-367,0-550.5c0-1.6,0.3-3.2-0.4-4.8C253.8,0.8,256.2,0.8,258.6,0.8z"/>
		<path class="st61" d="M330.4,560.8c0.7-1.5,0.4-3.2,0.4-4.8c0-183.5,0-367,0-550.5c0-1.6,0.3-3.2-0.4-4.8c2.4,0,4.8,0,7.3,0
			c1.2,1,0.7,2.3,0.7,3.6c0,184.3,0,368.6,0,552.9c0,1.3,0.5,2.6-0.7,3.6C335.2,560.8,332.8,560.8,330.4,560.8z"/>
		<path class="st3" d="M809,560.8c-2.4-10.4-1.1-20.9-1.1-31.3c-0.1-173.3-0.1-346.6-0.1-519.9c0-3.1,1-5.8,1.3-8.8
			c1.9,0,3.8,0,5.6,0c1.2,1,0.7,2.3,0.7,3.6c0,184.3,0,368.6,0,552.9c0,1.3,0.5,2.6-0.7,3.6C812.7,560.8,810.9,560.8,809,560.8z"/>
		<path class="st89" d="M81.4,560.8c2.9-3.5,2.8-7.5,2.8-11.8c0-178.8,0-357.6,0-536.5c0-4.2,0.1-8.3-2.8-11.8c3.5,0,7,0,10.5,0
			c-1.2,1-0.7,2.3-0.7,3.6c0,184.3,0,368.6,0,552.9c0,1.3-0.5,2.6,0.7,3.6C88.4,560.8,84.9,560.8,81.4,560.8z"/>
		<path class="st47" d="M456.1,0.8c-0.2,4.7-0.6,9.4-0.6,14.1c-0.1,7.2,1.1,14.5-0.5,21.7c-0.4,2,1.1,3.8,0.7,5.9
			c-1.1,6.8-0.4,13.7-0.4,20.5c0,5.9,0,12.1,0,18.1c0,6.8,0.1,13.7,0,20.5c-0.1,5.2,0,10.7,0.1,16c0.2,7.3,1.1,14.8-0.5,22.1
			c-0.4,1.9,1,3.3,0.7,5.1c-1,7.1-0.3,14.2-0.4,21.3c-0.1,5.2,0,10.7,0.1,16c0.2,7.3,1.1,14.8-0.5,22.1c-0.4,1.9,1,3.3,0.7,5.1
			c-1,7.1-0.3,14.2-0.4,21.3c-0.1,5.2,0,10.7,0.1,16c0.2,7.3,1.1,14.8-0.5,22.1c-0.4,1.9,1,3.3,0.7,5.1c-1,7.1-0.3,14.2-0.4,21.3
			c-0.1,5.2,0,10.7,0.1,16c0.2,7.3,1.1,14.8-0.5,22.1c-0.4,1.9,1,3.3,0.7,5.1c-1,7.1-0.3,14.2-0.4,21.3c-0.1,5.2,0,10.7,0.1,16
			c0.2,7.3,1.1,14.8-0.5,22.1c-0.4,1.9,1,3.3,0.7,5.1c-1,7.1-0.3,14.2-0.4,21.3c-0.1,5.2,0,10.7,0.1,16c0.1,7.3,1.1,14.8-0.4,22.1
			c-0.4,1.9,1,3.3,0.7,5.1c-1,7.1-0.3,14.2-0.4,21.3c-0.1,5.2,0,10.7,0.1,16c0.1,7.3,0.8,14.7-0.3,22.1c-0.5,3.4,0.7,7.1,0.5,10.7
			c-0.4,7.9-0.1,15.9,0.4,23.8c-2.7,0-5.4,0-8.1,0c1.2-1,0.7-2.3,0.7-3.6c0-184.3,0-368.6,0-552.9c0-1.3,0.5-2.6-0.7-3.6
			C450.7,0.8,453.4,0.8,456.1,0.8z"/>
		<path class="st44" d="M476.2,560.8c0.7-1.5,0.4-3.2,0.4-4.8c0-183.5,0-367,0-550.5c0-1.6,0.3-3.2-0.4-4.8c2.4,0,4.8,0,7.3,0
			c-0.7,1.5-0.4,3.2-0.4,4.8c0,183.5,0,367,0,550.5c0,1.6-0.3,3.2,0.4,4.8C481,560.8,478.6,560.8,476.2,560.8z"/>
		<path class="st9" d="M36.3,560.8c2-1.9,2.4-4,2.4-6.8c0-182.4,0.1-364.7,0.2-547.1c0-2.5-0.9-4.4-2.6-6.1c2.7,0,5.4,0,8.1,0
			C45,2.3,44.7,4,44.7,5.6c0,183.5,0,367,0,550.5c0,1.6,0.3,3.2-0.4,4.8C41.6,560.8,38.9,560.8,36.3,560.8z"/>
		<path class="st28" d="M639.8,0.8c0.7,1.5,0.4,3.2,0.4,4.8c0,183.5,0,367,0,550.5c0,1.6,0.3,3.2-0.4,4.8c-2.1,0-4.3,0-6.4,0
			c1.2-1,0.7-2.3,0.7-3.6c0-184.3,0-368.6,0-552.9c0-1.3,0.5-2.6-0.7-3.6C635.5,0.8,637.6,0.8,639.8,0.8z"/>
		<path class="st84" d="M130.5,0.8c1.2,1,0.7,2.3,0.7,3.6c0,184.3,0,368.6,0,552.9c0,1.3,0.5,2.6-0.7,3.6c-1.9,0-3.8,0-5.6,0
			c0.7-1.5,0.4-3.2,0.4-4.8c0-183.5,0-367,0-550.5c0-1.6,0.3-3.2-0.4-4.8C126.8,0.8,128.7,0.8,130.5,0.8z"/>
		<path class="st98" d="M854.1,0.8c1.2,1,0.7,2.3,0.7,3.6c0,184.3,0,368.6,0,552.9c0,1.3,0.5,2.5-0.7,3.6c-1.9,0-3.8,0-5.6,0
			c0.7-1.5,0.4-3.2,0.4-4.8c0-183.5,0-367,0-550.5c0-1.6,0.3-3.2-0.4-4.8C850.3,0.8,852.2,0.8,854.1,0.8z"/>
		<path class="st93" d="M903.2,0.8c1.2,1,0.7,2.3,0.7,3.6c0,184.3,0,368.6,0,552.9c0,1.3,0.5,2.5-0.7,3.6c-1.9,0-3.8,0-5.6,0
			c0.7-1.5,0.4-3.2,0.4-4.8c0-183.5,0-367,0-550.5c0-1.6,0.3-3.2-0.4-4.8C899.5,0.8,901.4,0.8,903.2,0.8z"/>
		<path class="st25" d="M663.1,560.8c0.7-1.5,0.4-3.2,0.4-4.8c0-183.5,0-367,0-550.5c0-1.6,0.3-3.2-0.4-4.8c1.9,0,3.8,0,5.6,0
			c1.2,1,0.7,2.3,0.7,3.6c0,184.3,0,368.6,0,552.9c0,1.3,0.5,2.6-0.7,3.6C666.9,560.8,665,560.8,663.1,560.8z"/>
		<path class="st31" d="M610,0.8c0.7,1.5,0.4,3.2,0.4,4.8c0,183.5,0,367,0,550.5c0,1.6,0.3,3.2-0.4,4.8c-1.9,0-3.8,0-5.6,0
			c0.7-1.5,0.4-3.2,0.4-4.8c0-183.5,0-367,0-550.5c0-1.6,0.3-3.2-0.4-4.8C606.2,0.8,608.1,0.8,610,0.8z"/>
		<path class="st17" d="M6.4,0.8C4.9,2.5,5.2,4.5,5.2,6.5c0,127.3,0,254.6,0,381.9c0,55.5,0,111.1,0,166.6c0,2-0.3,4.1,1.2,5.7
			c-1.9,0-3.8,0-5.6,0c0-186.7,0-373.3,0-560C2.7,0.8,4.6,0.8,6.4,0.8z"/>
		<path class="st67" d="M270.7,560.8c0.7-1.5,0.4-3.2,0.4-4.8c0-183.5,0-367,0-550.5c0-1.6,0.3-3.2-0.4-4.8c1.3,0,2.7,0,4,0
			c-0.7,1.7-0.4,3.4-0.4,5.2c0,183,0,366.1,0,549.1c0,2,0.3,4-1.2,5.7C272.3,560.8,271.5,560.8,270.7,560.8z"/>
		<path class="st76" d="M960.5,560.8c0-186.7,0-373.3,0-560c0.2,0.2,0.8-0.4,0.8,0.4c0,1.1,0,2.1,0,3.2c0,184.2,0,368.5,0,552.7
			C961.2,558.4,962.1,559.9,960.5,560.8z"/>
	</g>
</g>
<g>
	<g id="CoffeLogo">
		<path class="st59" d="M375.1,373.5c0,32.3-48.6,63.3-108.5,63.3c-59.9,0-108.5-28.4-108.5-63.3s48.6-63.3,108.5-63.3
			C326.5,310.2,375.1,338.5,375.1,373.5z"/>
		<path class="st87" d="M440.4,341c0,50.2-78,90.9-174.2,90.9c-96.2,0-174.2-40.7-174.2-90.9c0-50.2,78-90.9,174.2-90.9
			C362.4,250.2,440.4,290.8,440.4,341z"/>
		<path class="st59" d="M431.2,341.1c0,45.3-73.7,82-164.6,82c-90.9,0-164.6-36.7-164.6-82s73.7-82,164.6-82
			C357.5,259.2,431.2,295.9,431.2,341.1z"/>
		<path class="st87" d="M372.4,193.9l-0.3,116C372.1,309.8,602.8,131.1,372.4,193.9z M391.5,258.2l4.7-52.7
			C511.9,175.4,391.5,258.2,391.5,258.2z"/>
		<path class="st87" d="M321.1,353.6c1.8,35.7-24.5,33.6-54.5,33.6c-30.1,0-57.7,4-54.3-33.6c1.6-17.8,24.4-32.4,54.4-32.4
			C296.8,321.2,320.2,335.7,321.1,353.6z"/>
		<path class="st59" d="M135,163v63.3c0,84.3,58.1,152.6,130,152.6c71.9,0,130-68.3,130-152.6V163H135z"/>
		<path class="st87" d="M396.4,163.4c0,22.2-58.1,40.2-129.8,40.2c-71.7,0-129.8-18-129.8-40.2c0-22.2,58.1-40.2,129.8-40.2
			C338.3,123.2,396.4,141.2,396.4,163.4z"/>
		<path class="st59" d="M378.8,174.9c4.5-3.6,6.9-7.5,6.9-11.5c0-18.9-53.5-34.3-119.5-34.3c-66,0-119.5,15.3-119.5,34.3
			c0,4,2.4,7.9,6.9,11.5c16.5-13.3,60.7-22.8,112.6-22.8C318.1,152.2,362.3,161.6,378.8,174.9z"/>
		<path class="st23" d="M378.8,174.9c-16.5-13.3-60.7-22.8-112.6-22.8c-51.9,0-96.1,9.5-112.6,22.8c16.5,13.3,60.7,22.8,112.6,22.8
			C318.1,197.7,362.3,188.2,378.8,174.9z"/>
	</g>
	<g>
		<path class="st59" d="M500.4,301.8l0.1-2.2c0.5-15.4,3.8-29.9,10-43.6c5.7-12.5,12.8-22.6,21.5-30.4c8.5-7.6,16.9-11.4,25-11.4
			c6.2,0,11,2.5,14.6,7.5c3,4.3,4.6,9.6,4.6,15.9c0,7.5-2.4,14.9-7.1,22.2c-2.7,4.2-5.6,7.3-8.7,9.1c-1.5,0.9-2.8,1.4-4.1,1.4
			s-2.4-0.3-3.5-0.9c-1.1-0.6-2-1.4-2.8-2.3c-1.6-2-2.4-3.8-2.4-5.4c0-1.6,0.4-2.7,1.1-3.3c7.2-6.1,12.1-12.3,14.7-18.8
			c1-2.5,1.5-4.9,1.5-7.3c0-5-2-7.5-6.1-7.5c-6.3,0-12.9,4-19.6,12.1c-6.3,7.5-11.6,16.8-15.9,28.1c-4.5,11.6-6.8,22.2-7.1,31.9
			l-0.1,2.9c0,11.6,2.1,19.2,6.3,22.8c1.5,1.3,3.3,1.9,5.4,1.9c2.1,0,4.1-0.3,5.9-0.9c1.9-0.6,3.7-1.5,5.6-2.5
			c3-1.8,6.8-4.9,11.5-9.3c1.4-1.3,2.6-1.1,3.5,0.5c0.8,1.3,1.2,2.9,1.2,4.6c0,2.9-0.3,4.9-1,6c-0.7,1.1-1.9,2.3-3.5,3.7
			s-3.7,2.8-6,4c-5.6,2.9-11,4.3-16.3,4.3c-5.3,0-9.6-0.8-12.9-2.3c-3.3-1.5-6-3.7-8.3-6.5C502.7,320.3,500.4,312.1,500.4,301.8z"/>
		<path class="st59" d="M577.1,329c-1.9-2.1-3.3-4.7-4.4-7.8s-1.6-6.9-1.7-11.2c0-4.3,0.4-8.7,1.4-13.1c0.9-4.4,2.3-8.7,4-12.8
			c1.7-4.1,3.8-8,6.3-11.6s5.1-6.7,8.1-9.4c6.4-5.8,13.1-8.7,20-8.7c9.1,0,15.2,4.7,18.4,14c2.3,6.7,2.4,14.9,0.4,24.5
			c-1.8,8.8-5.2,16.9-10.2,24.3c-4.9,7.4-10.7,12.6-17.3,15.7c-3.3,1.5-6.6,2.3-9.9,2.3c-3.2,0-6.1-0.5-8.7-1.5
			S578.9,331.1,577.1,329z M589.7,291.5c-1.3,3.8-2.4,7.7-3.1,11.7c-0.8,4-1.1,7.8-1.1,11.4c0,3.6,0.5,6.4,1.4,8.4
			c0.9,2,2.4,3.1,4.4,3.1c2,0,4-0.8,6-2.4c2-1.6,3.9-3.8,5.7-6.5c1.9-2.7,3.6-5.8,5.2-9.3c1.6-3.5,3.1-7.2,4.3-11
			c2.7-8.3,4-15.7,3.9-22.1c0-5.7-1-9.3-3-10.8c-0.8-0.6-1.9-0.9-3.3-0.9s-3.1,0.8-4.9,2.3c-1.9,1.5-3.7,3.6-5.6,6.1
			c-1.8,2.6-3.6,5.6-5.4,9C592.5,284.1,591,287.7,589.7,291.5z"/>
		<path class="st59" d="M633.1,351.3c0-1.1,0.7-3.2,2.1-6.5c1.4-3.2,2.9-7.3,4.6-12.3s3.2-10.2,4.7-15.6c1.5-5.4,3-11.2,4.6-17.4
			l5.2-20.4l-6.9,2.2c-1.7,0-3.1-1.1-4.2-3.2c-0.3-0.6-0.4-1.2-0.4-2s0.5-1.7,1.6-2.7c1.1-1.1,2.4-2,3.9-3c3.1-1.9,6.3-3.3,9.5-4.2
			l0.6-2.2c1.2-4.3,2.3-8.8,3.4-13.5c1.1-4.7,2.2-9.2,3.4-13.6c1.2-4.4,2.6-8.6,4.1-12.6c1.5-4,3.3-7.5,5.4-10.5
			c4.6-6.5,10.3-9.7,17.3-9.7c5.1,0,9.2,1.6,12.2,4.8c3,3.2,4.5,7.5,4.5,13c0,5.7-1.4,10.6-4.2,14.8c-2.3,3.5-4.9,5.2-7.8,5.2
			c-3.6,0-6-1.9-7.3-5.7c-0.4-1-0.5-1.8-0.5-2.5c0-1.1,0.7-2.2,2-3.1c2.4-2.2,4.1-5,5.1-8.7c0.3-1.1,0.5-2.2,0.5-3.3
			c0-4.2-1.4-6.3-4.2-6.3c-3.9,0-7.4,5.1-10.7,15.4c-1,3.1-1.9,6.6-2.9,10.4l-6.2,24.6c4-0.7,6.9-1.1,8.8-1.1s3.4,0.2,4.9,0.7
			c1.4,0.5,2.7,1.2,3.8,2c2.6,2,3.9,4.5,3.9,7.4s-1.2,4.4-3.7,4.4l-8.4-0.4c-4.6,0-8.8,0.2-12.7,0.7l-5.4,22.4
			c-3.6,15.2-6.5,26.2-8.7,33.1c-2.2,6.9-4.4,12.7-6.5,17.5c-2,4.4-5,6.6-9.1,6.6C635.1,356,633.1,354.4,633.1,351.3z"/>
		<path class="st59" d="M686.3,351.3c0-1.1,0.7-3.2,2.1-6.5c1.4-3.2,2.9-7.3,4.6-12.3s3.2-10.2,4.7-15.6c1.5-5.4,3-11.2,4.6-17.4
			l5.2-20.4l-6.9,2.2c-1.7,0-3.1-1.1-4.2-3.2c-0.3-0.6-0.4-1.2-0.4-2s0.5-1.7,1.6-2.7c1.1-1.1,2.4-2,3.9-3c3.1-1.9,6.3-3.3,9.5-4.2
			l0.6-2.2c1.2-4.3,2.3-8.8,3.4-13.5c1.1-4.7,2.2-9.2,3.4-13.6c1.2-4.4,2.6-8.6,4.1-12.6c1.5-4,3.3-7.5,5.4-10.5
			c4.6-6.5,10.3-9.7,17.3-9.7c5.1,0,9.2,1.6,12.2,4.8c3,3.2,4.5,7.5,4.5,13c0,5.7-1.4,10.6-4.2,14.8c-2.3,3.5-4.9,5.2-7.8,5.2
			c-3.6,0-6-1.9-7.3-5.7c-0.4-1-0.5-1.8-0.5-2.5c0-1.1,0.7-2.2,2-3.1c2.4-2.2,4.1-5,5.1-8.7c0.3-1.1,0.5-2.2,0.5-3.3
			c0-4.2-1.4-6.3-4.2-6.3c-3.9,0-7.4,5.1-10.7,15.4c-1,3.1-1.9,6.6-2.9,10.4l-6.2,24.6c4-0.7,6.9-1.1,8.8-1.1c1.8,0,3.4,0.2,4.9,0.7
			c1.4,0.5,2.7,1.2,3.8,2c2.6,2,3.9,4.5,3.9,7.4s-1.2,4.4-3.7,4.4l-8.4-0.4c-4.6,0-8.8,0.2-12.7,0.7l-5.4,22.4
			c-3.6,15.2-6.5,26.2-8.7,33.1c-2.2,6.9-4.4,12.7-6.5,17.5c-2,4.4-5,6.6-9.1,6.6C688.3,356,686.3,354.4,686.3,351.3z"/>
		<path class="st59" d="M747.7,307.2c0.2-4.5,0.8-8.8,1.9-12.9c1.1-4.1,2.6-8.1,4.4-11.9c1.9-3.8,4-7.5,6.5-10.9
			c2.5-3.4,5.2-6.4,8.1-9c6.3-5.5,12.7-8.3,19.1-8.3c7.5,0,12.6,3.6,15.1,10.9c0.9,2.5,1.3,5.4,1.3,8.8c0,3.4-0.6,6.5-1.7,9.3
			c-1.1,2.9-2.5,5.5-4.4,7.8c-1.9,2.3-4.1,4.4-6.7,6.3c-2.6,1.9-5.4,3.4-8.4,4.7c-6.3,2.6-13,3.9-20.1,4c-0.2,0.7-0.3,1.8-0.3,3.2
			c0,1.4,0.1,3.1,0.4,4.8c0.3,1.8,0.8,3.4,1.6,4.8c1.6,3.1,3.9,4.6,6.9,4.6c5.1,0,10.1-1.8,14.9-5.3c1.7-1.2,3.1-2.4,4.2-3.7
			c1.1-1.3,2-1.9,2.8-1.9s1.5,0.6,2.1,1.7c0.6,1.1,0.9,2.4,0.9,3.7c0,2.7-0.7,5.1-2,7.1c-5.6,6.5-13.8,9.7-24.8,9.7
			c-6.5,0-11.7-2.3-15.6-6.8C749.5,323.1,747.5,316.1,747.7,307.2z M786.3,264.6c-4.6,0-9.1,3.7-13.4,11.1c-3.6,6.4-6.5,14-8.7,22.7
			c7.4-0.9,13.7-4.3,19.2-10.2c5-5.6,7.5-10.9,7.5-16C790.9,267.1,789.4,264.6,786.3,264.6z"/>
		<path class="st59" d="M811.6,307.2c0.2-4.5,0.8-8.8,1.9-12.9c1.1-4.1,2.6-8.1,4.4-11.9c1.8-3.8,4-7.5,6.5-10.9
			c2.5-3.4,5.2-6.4,8.1-9c6.3-5.5,12.7-8.3,19.1-8.3c7.5,0,12.6,3.6,15.1,10.9c0.9,2.5,1.3,5.4,1.3,8.8c0,3.4-0.6,6.5-1.7,9.3
			c-1.1,2.9-2.5,5.5-4.4,7.8c-1.9,2.3-4.1,4.4-6.7,6.3s-5.4,3.4-8.4,4.7c-6.3,2.6-13,3.9-20.1,4c-0.2,0.7-0.3,1.8-0.3,3.2
			c0,1.4,0.1,3.1,0.4,4.8c0.3,1.8,0.8,3.4,1.6,4.8c1.6,3.1,3.9,4.6,6.9,4.6c5.1,0,10.1-1.8,14.9-5.3c1.7-1.2,3.1-2.4,4.2-3.7
			c1.1-1.3,2-1.9,2.8-1.9s1.5,0.6,2.1,1.7s0.9,2.4,0.9,3.7c0,2.7-0.7,5.1-2,7.1c-5.6,6.5-13.8,9.7-24.8,9.7
			c-6.5,0-11.7-2.3-15.6-6.8C813.4,323.1,811.3,316.1,811.6,307.2z M850.2,264.6c-4.6,0-9.1,3.7-13.3,11.1c-3.6,6.4-6.5,14-8.7,22.7
			c7.4-0.9,13.7-4.3,19.2-10.2c5-5.6,7.5-10.9,7.5-16C854.7,267.1,853.2,264.6,850.2,264.6z"/>
	</g>
</g>
</svg>
